<?xml version="1.0" standalone="no"?>
<!DOCTYPE svg PUBLIC "-//W3C//DTD SVG 20010904//EN"
 "http://www.w3.org/TR/2001/REC-SVG-20010904/DTD/svg10.dtd">
<svg version="1.0" xmlns="http://www.w3.org/2000/svg"
 width="" height="" viewBox="0 0 186.000000 271.000000"
 preserveAspectRatio="xMidYMid meet">
<metadata>
Created by potrace 1.15, written by Peter Selinger 2001-2017
</metadata>
<g transform="translate(0.000000,271.000000) scale(0.100000,-0.100000)"
fill="#000000" stroke="none">
<path d="M1043 2628 c-6 -7 -222 -367 -482 -800 l-472 -787 3 -133 3 -133 394
-3 393 -2 -4 -153 c-3 -133 -7 -157 -26 -194 -31 -60 -88 -84 -234 -99 l-68
-7 0 -93 0 -94 588 2 587 3 3 91 3 91 -61 6 c-140 15 -199 48 -218 123 -6 21
-14 103 -18 181 l-7 142 149 3 149 3 0 120 0 120 -141 3 -142 3 -7 809 -7 810
-188 0 c-138 0 -190 -3 -197 -12z m-104 -718 c-10 -135 -28 -391 -39 -569 -11
-179 -21 -325 -23 -325 -1 -1 -140 1 -308 4 l-307 5 270 445 c365 603 420 692
423 688 2 -2 -5 -113 -16 -248z"/>
</g>
</svg>
