<?xml version="1.0" standalone="no"?>
<!DOCTYPE svg PUBLIC "-//W3C//DTD SVG 20010904//EN"
 "http://www.w3.org/TR/2001/REC-SVG-20010904/DTD/svg10.dtd">
<svg version="1.0" xmlns="http://www.w3.org/2000/svg"
 width="" height="" viewBox="0 0 231.000000 218.000000"
 preserveAspectRatio="xMidYMid meet">
<metadata>
Created by potrace 1.15, written by Peter Selinger 2001-2017
</metadata>
<g transform="translate(0.000000,218.000000) scale(0.100000,-0.100000)"
fill="#000000" stroke="none">
<path d="M1040 2174 c-48 -6 -201 -34 -222 -40 -13 -4 -18 -16 -18 -43 l0 -38
64 -6 c143 -13 321 -84 421 -167 66 -56 85 -86 85 -138 0 -38 -6 -49 -52 -99
l-53 -56 130 -123 130 -124 23 30 c31 39 83 70 120 70 66 0 150 -52 188 -115
28 -49 30 -67 9 -99 -20 -31 -7 -67 43 -119 78 -82 112 -73 243 61 53 53 104
108 113 122 25 38 20 72 -20 123 -41 53 -90 75 -125 57 -44 -24 -126 14 -148
67 -6 16 -15 66 -20 113 l-9 85 -159 155 c-134 132 -170 162 -240 198 -111 57
-211 82 -353 87 -63 2 -131 1 -150 -1z"/>
<path d="M620 946 c-423 -415 -599 -594 -609 -620 -26 -67 -10 -100 97 -207
103 -103 131 -116 198 -98 24 7 151 143 561 597 291 323 544 603 561 623 l32
36 -123 127 -122 127 -595 -585z"/>
</g>
</svg>
