<?xml version="1.0" standalone="no"?>
<!DOCTYPE svg PUBLIC "-//W3C//DTD SVG 20010904//EN"
 "http://www.w3.org/TR/2001/REC-SVG-20010904/DTD/svg10.dtd">
<svg version="1.0" xmlns="http://www.w3.org/2000/svg"
 width="" height="" viewBox="0 0 225.000000 225.000000"
 preserveAspectRatio="xMidYMid meet">
<metadata>
Created by potrace 1.15, written by Peter Selinger 2001-2017
</metadata>
<g transform="translate(0.000000,225.000000) scale(0.100000,-0.100000)"
fill="#000000" stroke="none">
<path d="M1212 2078 l3 -173 88 -3 87 -3 0 -652 0 -652 -123 -123 -122 -122
-105 0 -105 0 -145 145 -145 145 -122 -122 -123 -123 177 -178 c109 -109 194
-186 218 -198 35 -16 66 -19 243 -19 161 0 210 3 240 15 50 22 408 376 433
430 18 38 19 78 19 748 l0 707 85 0 85 0 0 175 0 175 -345 0 -345 0 2 -172z"/>
</g>
</svg>
