<?xml version="1.0" standalone="no"?>
<!DOCTYPE svg PUBLIC "-//W3C//DTD SVG 20010904//EN"
 "http://www.w3.org/TR/2001/REC-SVG-20010904/DTD/svg10.dtd">
<svg version="1.0" xmlns="http://www.w3.org/2000/svg"
 width="" height="" viewBox="0 0 999.000000 1278.000000"
 preserveAspectRatio="xMidYMid meet">
<metadata>
Created by potrace 1.15, written by Peter Selinger 2001-2017
</metadata>
<g transform="translate(0.000000,1278.000000) scale(0.100000,-0.100000)"
fill="#000000" stroke="none">
<path d="M4615 12765 c-692 -76 -1326 -403 -1763 -910 -341 -397 -570 -878
-676 -1424 -24 -119 -39 -250 -66 -551 -24 -262 -69 -515 -146 -810 -46 -181
-174 -601 -241 -796 l-38 -111 -95 -85 c-109 -97 -256 -263 -350 -396 -153
-216 -269 -434 -423 -797 -418 -982 -691 -1959 -794 -2845 -26 -226 -26 -742
1 -890 68 -382 193 -498 441 -412 160 56 366 200 585 409 l66 62 13 -112 c47
-405 149 -778 300 -1092 81 -169 191 -375 202 -375 4 0 38 19 75 42 137 83
379 187 569 245 750 226 1599 161 2269 -174 177 -89 379 -225 455 -307 31 -33
41 -33 77 5 70 74 277 215 423 289 695 349 1536 417 2300 185 195 -58 426
-159 573 -248 42 -26 78 -47 81 -47 2 0 40 73 84 163 178 355 311 757 393
1181 16 82 31 150 33 152 1 2 34 -24 72 -58 182 -158 359 -274 490 -320 248
-86 373 30 441 412 27 148 27 664 1 890 -113 972 -452 2123 -926 3144 -91 195
-254 459 -387 626 -137 171 -394 405 -511 464 -17 9 -34 20 -37 25 -7 11 -46
239 -131 771 -122 765 -199 1106 -340 1513 -349 1006 -908 1687 -1640 2002
-214 91 -489 161 -729 184 -146 15 -502 12 -651 -4z m-473 -1696 c236 -79 420
-368 489 -769 26 -150 28 -455 4 -580 l-6 -35 341 0 342 0 -6 35 c-14 88 -18
380 -7 480 83 730 545 1109 920 756 280 -264 402 -843 287 -1356 l-22 -97 51
-18 c81 -29 241 -113 301 -161 218 -169 270 -390 154 -650 -42 -93 -121 -204
-221 -309 l-92 -95 34 -12 c167 -58 348 -193 495 -369 429 -515 721 -1437 806
-2549 16 -216 16 -860 -1 -1055 -69 -803 -260 -1319 -606 -1635 -206 -189
-450 -289 -775 -319 -157 -15 -3069 -15 -3235 0 -637 55 -1045 431 -1248 1149
-107 381 -150 763 -150 1330 0 357 9 534 44 850 139 1277 609 2292 1184 2561
l63 30 -92 92 c-227 226 -335 470 -296 669 19 101 56 164 145 253 88 88 176
143 321 202 49 19 90 36 91 37 1 1 -5 28 -13 61 -103 438 -39 937 161 1246
147 228 345 323 537 258z"/>
<path d="M3913 10402 c-146 -52 -252 -175 -294 -341 -15 -60 -14 -187 1 -253
34 -140 129 -267 245 -324 54 -26 70 -29 160 -29 90 0 106 3 160 29 113 56
203 171 241 311 18 62 19 206 3 271 -18 77 -79 184 -133 237 -107 103 -261
143 -383 99z"/>
<path d="M5804 10400 c-195 -69 -314 -265 -301 -495 9 -161 72 -289 186 -374
236 -179 544 -49 632 264 7 28 14 91 14 140 0 100 -14 162 -56 245 -93 187
-299 283 -475 220z"/>
<path d="M6555 8844 c-22 -19 -83 -63 -136 -98 -319 -212 -697 -346 -1134
-402 -175 -22 -515 -22 -690 0 -487 62 -916 228 -1245 481 l-63 49 19 -34 c36
-66 254 -272 359 -342 326 -217 688 -336 1120 -369 178 -14 387 -2 578 32 461
82 884 299 1130 579 50 57 113 141 105 140 -2 -1 -21 -16 -43 -36z"/>
<path d="M8617 1086 c-39 -75 -125 -175 -194 -229 -263 -202 -602 -238 -868
-92 l-61 34 -53 -41 c-67 -51 -199 -113 -287 -134 -96 -24 -278 -24 -369 0
-82 22 -196 72 -257 114 l-44 30 -71 -48 c-131 -88 -278 -126 -452 -117 -130
6 -199 24 -318 82 -143 71 -273 188 -329 296 -19 39 -22 41 -31 23 -33 -62
-17 -164 39 -263 47 -82 179 -207 279 -263 131 -73 236 -100 394 -102 107 0
144 3 208 22 89 25 161 59 230 109 l49 34 46 -30 c228 -145 495 -173 741 -75
65 26 159 81 198 116 l22 20 93 -45 c308 -152 676 -78 924 186 105 112 159
221 159 322 0 39 -5 78 -10 87 -9 14 -15 9 -38 -36z"/>
<path d="M1590 994 c-7 -16 -10 -57 -8 -91 6 -90 61 -194 153 -287 246 -249
621 -314 924 -161 37 18 82 45 98 59 17 14 34 26 38 26 3 0 26 -14 51 -31 158
-109 389 -155 590 -118 92 17 210 67 296 125 l78 54 63 -34 c97 -53 187 -77
313 -83 227 -11 420 61 603 225 l55 49 -22 46 c-12 25 -24 64 -28 85 l-6 40
-67 -51 c-248 -188 -580 -223 -838 -88 l-75 39 -51 -39 c-70 -52 -181 -105
-275 -131 -119 -32 -298 -30 -415 6 -94 28 -154 56 -226 105 l-45 30 -45 -33
c-118 -86 -241 -126 -406 -133 -141 -6 -247 14 -371 72 -142 65 -278 183 -344
298 l-29 51 -11 -30z"/>
</g>
</svg>
