<?xml version="1.0" standalone="no"?>
<!DOCTYPE svg PUBLIC "-//W3C//DTD SVG 20010904//EN"
 "http://www.w3.org/TR/2001/REC-SVG-20010904/DTD/svg10.dtd">
<svg version="1.0" xmlns="http://www.w3.org/2000/svg"
 width="" height="" viewBox="0 0 1024.000000 1024.000000"
 preserveAspectRatio="xMidYMid meet">
<metadata>
Created by potrace 1.15, written by Peter Selinger 2001-2017
</metadata>
<g transform="translate(0.000000,1024.000000) scale(0.100000,-0.100000)"
fill="#000000" stroke="none">
<path d="M4655 10224 c-286 -26 -605 -82 -874 -155 -742 -202 -1426 -567
-2021 -1078 -153 -132 -442 -426 -570 -581 -682 -823 -1083 -1791 -1175 -2840
-20 -229 -20 -671 0 -900 74 -842 350 -1641 811 -2348 205 -313 393 -542 673
-823 209 -209 355 -336 561 -490 777 -579 1699 -924 2669 -999 174 -13 608
-13 782 0 663 52 1298 226 1888 521 370 184 685 390 1016 663 151 125 502 475
627 626 692 836 1089 1794 1183 2857 19 219 19 667 0 886 -93 1059 -492 2025
-1175 2847 -208 250 -519 549 -799 768 -128 100 -436 307 -581 390 -648 369
-1358 592 -2100 657 -216 18 -703 18 -915 -1z m820 -654 c375 -32 726 -104
1065 -218 1503 -508 2622 -1765 2949 -3317 63 -298 91 -577 91 -915 0 -495
-64 -910 -212 -1370 -87 -272 -231 -598 -372 -845 -305 -532 -747 -1025 -1241
-1387 -580 -424 -1267 -707 -1970 -812 -245 -36 -325 -41 -665 -41 -340 0
-420 5 -665 41 -1232 183 -2345 889 -3040 1929 -137 206 -203 320 -307 530
-243 495 -390 1031 -438 1600 -13 154 -13 556 0 710 91 1076 543 2051 1305
2810 744 741 1720 1194 2770 1284 143 12 589 13 730 1z"/>
<path d="M5080 8493 c-531 -23 -986 -169 -1335 -428 -296 -219 -534 -516 -665
-830 -65 -156 -122 -396 -132 -555 l-3 -45 50 -7 c88 -13 1034 -128 1052 -128
15 0 24 21 46 108 141 541 470 864 962 943 112 17 349 15 462 -5 388 -68 670
-294 773 -621 47 -149 36 -361 -27 -509 -72 -173 -160 -265 -608 -638 -499
-416 -706 -635 -839 -888 -78 -148 -141 -364 -165 -570 -16 -136 -24 -386 -16
-503 l7 -107 549 0 549 0 0 48 c0 117 21 385 35 461 48 248 143 367 640 795
286 246 624 572 732 706 322 400 426 810 327 1289 -104 502 -515 987 -1054
1245 -206 98 -447 169 -703 207 -121 17 -470 41 -542 37 -16 -1 -59 -3 -95 -5z"/>
<path d="M4640 2630 l0 -560 560 0 560 0 0 560 0 560 -560 0 -560 0 0 -560z"/>
</g>
</svg>
