<?xml version="1.0" standalone="no"?>
<!DOCTYPE svg PUBLIC "-//W3C//DTD SVG 20010904//EN"
 "http://www.w3.org/TR/2001/REC-SVG-20010904/DTD/svg10.dtd">
<svg version="1.0" xmlns="http://www.w3.org/2000/svg"
 width="" height="" viewBox="0 0 225.000000 225.000000"
 preserveAspectRatio="xMidYMid meet">
<metadata>
Created by potrace 1.15, written by Peter Selinger 2001-2017
</metadata>
<g transform="translate(0.000000,225.000000) scale(0.100000,-0.100000)"
fill="#000000" stroke="none">
<path d="M748 1920 c-93 -13 -209 -52 -268 -90 -71 -46 -145 -130 -172 -198
-19 -49 -23 -75 -23 -187 0 -127 1 -132 32 -196 69 -140 176 -200 494 -278
242 -59 308 -82 356 -124 100 -88 97 -241 -8 -330 -140 -121 -487 -112 -784
19 -128 57 -115 67 -115 -89 l0 -136 68 -21 c37 -11 123 -32 192 -47 109 -24
148 -27 310 -27 214 -1 283 11 417 75 195 93 288 265 262 482 -18 151 -100
256 -254 328 -80 38 -127 52 -405 119 -265 65 -342 137 -309 291 28 129 158
192 399 192 145 0 269 -23 391 -72 l94 -38 3 120 c1 66 -1 124 -5 128 -14 13
-144 49 -233 65 -105 18 -352 26 -442 14z"/>
</g>
</svg>
