<?xml version="1.0" encoding="utf-8"?>
<!-- Generator: Adobe Illustrator 12.0.0, SVG Export Plug-In . SVG Version: 6.00 Build 51448)  -->
<!DOCTYPE svg PUBLIC "-//W3C//DTD SVG 1.1//EN" "http://www.w3.org/Graphics/SVG/1.1/DTD/svg11.dtd" [
	<!ENTITY ns_svg "http://www.w3.org/2000/svg">
	<!ENTITY ns_xlink "http://www.w3.org/1999/xlink">
]>
<svg  version="1.1" id="Layer_1" xmlns="&ns_svg;" xmlns:xlink="&ns_xlink;" width="" height="" viewBox="0 0 601 601"
	 overflow="visible" enable-background="new 0 0 601 601" xml:space="preserve">
<g>
	<g>
		<g>
			<path fill="#FFFFFF" d="M0.5,50.5c0-27.6142578,22.3852539-50,50-50h500c27.6142578,0,50,22.3857422,50,50v500
				c0,27.6152344-22.3857422,50-50,50h-500c-27.6147461,0-50-22.3847656-50-50V50.5L0.5,50.5z"/>
			<path fill="#FFFFFF" d="M300.5,300.5"/>
		</g>
		<g>
			<path fill="none" stroke="#000000" stroke-linecap="round" stroke-linejoin="round" stroke-miterlimit="3.863693" d="M0.5,50.5
				c0-27.6142578,22.3852539-50,50-50h500c27.6142578,0,50,22.3857422,50,50v500c0,27.6152344-22.3857422,50-50,50h-500
				c-27.6147461,0-50-22.3847656-50-50V50.5L0.5,50.5z"/>
			<path fill="none" stroke="#000000" stroke-linecap="round" stroke-linejoin="round" stroke-miterlimit="3.863693" d="
				M300.5,300.5"/>
		</g>
	</g>
	<g>
		<g>
			<path d="M10.5,50.5c0-22.0913086,17.9082031-40,40-40h500c22.0917969,0,40,17.9086914,40,40v500
				c0,22.0917969-17.9082031,40-40,40h-500c-22.0917969,0-40-17.9082031-40-40V50.5L10.5,50.5z"/>
			<path d="M300.5,300.5"/>
		</g>
	</g>
	<g>
		<g>
			<path fill="#FFFFFF" d="M25.5,50.5c0-13.8071289,11.1923828-25,25-25h500c13.8066406,0,25,11.1928711,25,25v500
				c0,13.8076172-11.1933594,25-25,25h-500c-13.8076172,0-25-11.1923828-25-25V50.5L25.5,50.5z"/>
			<path fill="#FFFFFF" d="M300.5,300.5"/>
		</g>
	</g>
</g>
<path fill-rule="evenodd" clip-rule="evenodd" d="M398.6269531,349.7792969c0,14.6972656-2.4492188,28.2421875-7.3486328,40.6347656
	c-4.8994141,12.3916016-11.7441406,22.9824219-20.5332031,31.7714844c-8.7900391,8.7900391-19.3085938,15.7060547-31.5566406,20.75
	C326.9414063,447.9785156,313.46875,450.5,298.7705078,450.5c-11.8154297,0-22.8383789-1.8730469-33.0688477-5.6191406
	c-10.2304688-3.7470703-19.5961914-8.9335938-28.0981445-15.5625c-8.5009766-6.6279297-15.777832-14.6972656-21.8300781-24.2070313
	c-6.0517578-9.5097656-10.5185547-20.1728516-13.4003906-31.9882813l44.9570313-12.96875
	c3.4580078,14.1210938,9.7978516,24.9277344,19.0200195,32.4199219c9.222168,7.4941406,20.7495117,11.2402344,34.581543,11.2402344
	c7.78125,0,14.8417969-1.296875,21.1816406-3.890625c6.3408203-2.59375,11.7441406-6.1240234,16.2109375-10.5908203
	c4.4667969-4.4677734,7.9970703-9.7978516,10.5908203-15.9941406s3.890625-13.0400391,3.890625-20.5332031
	s-1.4414063-14.5537109-4.3232422-21.1816406s-6.9160156-11.8154297-12.1035156-15.5625
	c-1.7285156-1.1513672-3.2421875-2.0888672-4.5390625-2.8095703s-2.8818359-1.2246094-4.7548828-1.5126953
	s-4.3232422-0.5761719-7.3486328-0.8642578s-7.2763672-0.5761719-12.7519531-0.8652344h-5.1875v-46.6855469v1.296875h1.296875
	h0.8642578h9.078125c9.2216797,0,16.2822266-2.4492188,21.1816406-7.3486328
	c4.8994141-4.8989258,7.3486328-11.9594727,7.3486328-21.1816406c0-11.2392578-3.9628906-20.5327148-11.8876953-27.8823242
	c-7.9248047-7.3481445-17.7958984-11.0224609-29.6113281-11.0224609c-19.3081055,0-33.8613281,9.5097656-43.659668,28.5302734
	l-42.7954102-15.9941406c7.4931641-18.4438477,18.8037109-32.925293,33.9335938-43.4438477S279.7509766,150.5,298.7705078,150.5
	c12.1044922,0,23.5595703,2.3056641,34.3662109,6.9165039c10.8066406,4.6113281,20.2451172,10.9511719,28.3144531,19.0205078
	c8.0683594,8.0688477,14.4091797,17.5068359,19.0195313,28.3139648c4.6113281,10.8071289,6.9169922,22.2617188,6.9169922,34.3657227
	c0,8.6459961-1.1533203,16.4267578-3.4580078,23.3432617c-2.3056641,6.9165039-6.6289063,14.9853516-12.96875,24.2075195
	c5.4755859,4.8989258,9.9423828,9.5820313,13.4003906,14.0493164c3.4589844,4.4658203,6.2685547,9.1484375,8.4296875,14.0488281
	c2.1611328,4.8984375,3.6738281,10.1582031,4.5390625,15.7773438
	C398.1943359,336.1630859,398.6269531,342.5742188,398.6269531,349.7792969z"/>
</svg>
